<svg width="179" height="29" viewBox="0 0 179 29" fill="none" xmlns="http://www.w3.org/2000/svg">
<path d="M175.486 22C174.272 22 173.283 21.832 172.518 21.496C171.771 21.1413 171.239 20.5627 170.922 19.76C170.604 18.9573 170.464 17.8653 170.502 16.484L170.642 10.772H168.318V7.69201L170.838 6.93601L171.454 2.70801H175.29V6.93601H178.566V10.772H175.29V16.456C175.29 16.7733 175.318 17.044 175.374 17.268C175.43 17.4733 175.514 17.6507 175.626 17.8C175.738 17.9307 175.868 18.0333 176.018 18.108C176.167 18.164 176.335 18.2013 176.522 18.22L178.426 18.416V22H175.486Z" fill="black"/>
<path d="M160.024 22.14C158.736 22.14 157.635 22.0093 156.72 21.748C155.824 21.468 155.096 21.0293 154.536 20.432C153.976 19.816 153.575 19.0227 153.332 18.052C153.09 17.0627 152.968 15.8587 152.968 14.44C152.968 12.9093 153.09 11.6493 153.332 10.66C153.594 9.65199 154.004 8.85866 154.564 8.27999C155.124 7.70133 155.852 7.29066 156.748 7.04799C157.663 6.80532 158.755 6.68399 160.024 6.68399C161.331 6.68399 162.432 6.81466 163.328 7.07599C164.224 7.31866 164.943 7.73866 165.484 8.33599C166.044 8.91466 166.455 9.70799 166.716 10.716C166.978 11.7053 167.108 12.9467 167.108 14.44C167.108 15.9147 166.987 17.1467 166.744 18.136C166.502 19.1253 166.1 19.9187 165.54 20.516C164.999 21.0947 164.271 21.5147 163.356 21.776C162.46 22.0187 161.35 22.14 160.024 22.14ZM160.024 18.304C160.454 18.304 160.808 18.2667 161.088 18.192C161.368 18.0987 161.592 17.9307 161.76 17.688C161.928 17.4267 162.05 17.0347 162.124 16.512C162.218 15.9893 162.264 15.2893 162.264 14.412C162.264 13.5347 162.218 12.8347 162.124 12.312C162.05 11.7893 161.928 11.4067 161.76 11.164C161.592 10.9027 161.368 10.7347 161.088 10.66C160.808 10.5853 160.454 10.548 160.024 10.548C159.614 10.548 159.268 10.5853 158.988 10.66C158.708 10.7347 158.475 10.9027 158.288 11.164C158.12 11.4067 157.999 11.7893 157.924 12.312C157.85 12.8347 157.812 13.5347 157.812 14.412C157.812 15.2893 157.85 15.9893 157.924 16.512C157.999 17.0347 158.12 17.4267 158.288 17.688C158.475 17.9307 158.708 18.0987 158.988 18.192C159.268 18.2667 159.614 18.304 160.024 18.304Z" fill="black"/>
<path d="M135.839 22V1.224H144.239C146.405 1.224 147.963 1.70933 148.915 2.68C149.886 3.65067 150.371 5.004 150.371 6.74C150.371 7.54267 150.259 8.252 150.035 8.868C149.811 9.484 149.485 9.99733 149.055 10.408C148.645 10.8 148.131 11.0707 147.515 11.22C147.963 11.332 148.402 11.5187 148.831 11.78C149.261 12.0227 149.634 12.3587 149.951 12.788C150.287 13.2173 150.549 13.7213 150.735 14.3C150.922 14.8787 151.015 15.5413 151.015 16.288C151.015 17.6693 150.773 18.78 150.287 19.62C149.821 20.46 149.111 21.0667 148.159 21.44C147.207 21.8133 146.031 22 144.631 22H135.839ZM140.683 17.66H144.491C144.902 17.66 145.247 17.576 145.527 17.408C145.826 17.24 146.05 16.9973 146.199 16.68C146.349 16.344 146.423 15.924 146.423 15.42C146.423 14.972 146.339 14.5893 146.171 14.272C146.022 13.9547 145.807 13.712 145.527 13.544C145.247 13.3573 144.902 13.264 144.491 13.264H140.683V17.66ZM140.683 9.596H144.239C144.725 9.596 145.098 9.40933 145.359 9.036C145.639 8.644 145.779 8.15867 145.779 7.58C145.779 6.81467 145.621 6.292 145.303 6.012C144.986 5.71333 144.622 5.564 144.211 5.564H140.683V9.596Z" fill="black"/>
<path d="M123.212 28.972C122.279 28.972 121.439 28.832 120.692 28.552C119.945 28.272 119.357 27.8613 118.928 27.32C118.499 26.7973 118.284 26.1533 118.284 25.388V25.024C118.284 24.24 118.508 23.5587 118.956 22.98C119.423 22.42 120.02 21.9907 120.748 21.692C121.476 21.3933 122.251 21.244 123.072 21.244L124.584 22.672C124.211 22.672 123.893 22.728 123.632 22.84C123.389 22.952 123.193 23.1107 123.044 23.316C122.913 23.5213 122.848 23.764 122.848 24.044V24.268C122.848 24.6787 122.988 25.0053 123.268 25.248C123.567 25.4907 124.005 25.612 124.584 25.612H127.244C127.785 25.612 128.224 25.5 128.56 25.276C128.896 25.0707 129.064 24.7533 129.064 24.324V23.932C129.064 23.6707 128.989 23.4467 128.84 23.26C128.709 23.0733 128.513 22.924 128.252 22.812C128.009 22.7187 127.692 22.672 127.3 22.672H124.36C122.512 22.672 121.149 22.336 120.272 21.664C119.395 20.992 118.956 20.1707 118.956 19.2C118.956 18.4347 119.171 17.7907 119.6 17.268C120.029 16.7267 120.636 16.3627 121.42 16.176C120.86 15.84 120.412 15.448 120.076 15C119.74 14.552 119.497 14.0667 119.348 13.544C119.199 13.0027 119.124 12.452 119.124 11.892C119.124 10.7907 119.348 9.87601 119.796 9.14801C120.244 8.40134 120.935 7.85067 121.868 7.49601C122.82 7.12267 124.043 6.936 125.536 6.936H133.74V9.568L131.808 10.044C131.957 10.2307 132.088 10.4547 132.2 10.716C132.331 10.9587 132.433 11.2573 132.508 11.612C132.601 11.9667 132.648 12.4053 132.648 12.928C132.648 13.824 132.461 14.6173 132.088 15.308C131.715 15.9987 131.127 16.54 130.324 16.932C129.54 17.324 128.485 17.52 127.16 17.52H124.388C124.015 17.52 123.688 17.5853 123.408 17.716C123.147 17.8467 123.016 18.0613 123.016 18.36C123.016 18.64 123.137 18.836 123.38 18.948C123.623 19.0413 123.903 19.088 124.22 19.088H128.112C129.251 19.088 130.231 19.2373 131.052 19.536C131.873 19.8347 132.508 20.3293 132.956 21.02C133.404 21.692 133.628 22.5973 133.628 23.736V24.044C133.628 25.5747 133.161 26.7787 132.228 27.656C131.295 28.5333 129.829 28.972 127.832 28.972H123.212ZM125.06 13.908H126.628C127.057 13.908 127.393 13.852 127.636 13.74C127.879 13.6093 128.047 13.4133 128.14 13.152C128.252 12.8907 128.308 12.5827 128.308 12.228C128.308 11.8173 128.252 11.4907 128.14 11.248C128.028 10.9867 127.851 10.8 127.608 10.688C127.365 10.576 127.048 10.52 126.656 10.52H125.116C124.537 10.52 124.117 10.6507 123.856 10.912C123.595 11.1547 123.464 11.584 123.464 12.2C123.464 12.7973 123.585 13.236 123.828 13.516C124.089 13.7773 124.5 13.908 125.06 13.908Z" fill="black"/>
<path d="M102.502 22V6.93599H106.506L107.346 8.41999C107.85 7.97199 108.503 7.57066 109.306 7.21599C110.127 6.86132 110.967 6.68399 111.826 6.68399C113.095 6.68399 114.066 6.92666 114.738 7.41199C115.41 7.89732 115.867 8.55999 116.11 9.39999C116.371 10.24 116.502 11.164 116.502 12.172V22H111.658V12.816C111.658 12.3867 111.583 12.0413 111.434 11.78C111.284 11.5187 111.079 11.332 110.818 11.22C110.556 11.0893 110.248 11.024 109.894 11.024C109.576 11.024 109.259 11.0707 108.942 11.164C108.624 11.2387 108.335 11.3507 108.074 11.5C107.812 11.6493 107.57 11.8173 107.346 12.004V22H102.502Z" fill="black"/>
<path d="M95.4053 4.89199C94.9946 4.89199 94.7893 4.68665 94.7893 4.27599V1.33599C94.7893 0.906653 94.9946 0.691986 95.4053 0.691986H99.1573C99.3626 0.691986 99.512 0.757319 99.6053 0.887987C99.6986 0.999986 99.7453 1.14932 99.7453 1.33599V4.27599C99.7453 4.68665 99.5493 4.89199 99.1573 4.89199H95.4053ZM94.8453 22V6.93599H99.6893V22H94.8453Z" fill="black"/>
<path d="M89.7357 22C88.5224 22 87.5331 21.832 86.7678 21.496C86.0211 21.1413 85.4891 20.5627 85.1718 19.76C84.8544 18.9573 84.7144 17.8653 84.7517 16.484L84.8917 10.772H82.5677V7.69201L85.0878 6.93601L85.7038 2.70801H89.5397V6.93601H92.8158V10.772H89.5397V16.456C89.5397 16.7733 89.5677 17.044 89.6237 17.268C89.6797 17.4733 89.7637 17.6507 89.8757 17.8C89.9877 17.9307 90.1184 18.0333 90.2678 18.108C90.4171 18.164 90.5851 18.2013 90.7718 18.22L92.6758 18.416V22H89.7357Z" fill="black"/>
<path d="M75.284 22.14C73.604 22.14 72.2507 21.9253 71.224 21.496C70.1973 21.048 69.4507 20.2733 68.984 19.172C68.536 18.052 68.312 16.4933 68.312 14.496C68.312 12.4427 68.5173 10.856 68.928 9.73599C69.3573 8.59732 70.0667 7.80399 71.056 7.35599C72.0453 6.90799 73.3893 6.68399 75.088 6.68399C76.6373 6.68399 77.8693 6.83333 78.784 7.13199C79.6987 7.43066 80.352 7.96266 80.744 8.72799C81.1547 9.49332 81.36 10.576 81.36 11.976C81.36 13.0213 81.1547 13.852 80.744 14.468C80.3333 15.084 79.7453 15.5227 78.98 15.784C78.2333 16.0267 77.3467 16.148 76.32 16.148H73.1C73.156 16.7453 73.268 17.2213 73.436 17.576C73.6227 17.9307 73.9587 18.1827 74.444 18.332C74.9293 18.4813 75.648 18.556 76.6 18.556H80.828V21.384C80.1373 21.552 79.344 21.72 78.448 21.888C77.5707 22.056 76.516 22.14 75.284 22.14ZM73.044 13.292H75.788C76.2547 13.292 76.5907 13.1987 76.796 13.012C77.0013 12.8253 77.104 12.4893 77.104 12.004C77.104 11.556 77.0387 11.2013 76.908 10.94C76.7773 10.66 76.5627 10.464 76.264 10.352C75.9653 10.2213 75.5733 10.156 75.088 10.156C74.6027 10.156 74.2107 10.2493 73.912 10.436C73.6133 10.604 73.3893 10.9213 73.24 11.388C73.1093 11.836 73.044 12.4707 73.044 13.292Z" fill="black"/>
<path d="M52.736 22V0.635986H57.58V11.892H59.204L62.06 6.93599H66.932L62.788 14.076L67.408 22H62.536L59.148 16.232H57.58V22H52.736Z" fill="black"/>
<path d="M40.7867 22V6.936H44.5387L45.6307 9.12001C46.1161 8.46667 46.6761 7.90667 47.3107 7.44C47.9454 6.95467 48.7014 6.71201 49.5787 6.71201C49.7467 6.71201 49.9334 6.72134 50.1387 6.74001C50.3627 6.75867 50.5681 6.796 50.7547 6.85201V11.808C50.4561 11.7707 50.1481 11.7427 49.8307 11.724C49.5134 11.7053 49.2147 11.696 48.9347 11.696C48.4494 11.696 48.0014 11.752 47.5907 11.864C47.1987 11.9573 46.8347 12.1067 46.4987 12.312C46.1814 12.4987 45.8921 12.7507 45.6307 13.068V22H40.7867Z" fill="black"/>
<path d="M28.6415 22.168C27.4841 22.168 26.5508 21.832 25.8415 21.16C25.1321 20.4693 24.7775 19.536 24.7775 18.36V16.904C24.7775 15.7653 25.1788 14.8227 25.9815 14.076C26.8028 13.3293 28.0815 12.956 29.8175 12.956H33.2335V12.228C33.2335 11.8173 33.1588 11.4813 33.0095 11.22C32.8601 10.9587 32.5708 10.772 32.1415 10.66C31.7121 10.548 31.0495 10.492 30.1535 10.492H25.7295V7.71999C26.4761 7.43999 27.3441 7.21599 28.3335 7.04799C29.3415 6.86132 30.5548 6.75866 31.9735 6.73999C33.2241 6.73999 34.3068 6.88932 35.2215 7.18799C36.1361 7.48666 36.8361 8.00932 37.3215 8.75599C37.8255 9.48399 38.0775 10.5293 38.0775 11.892V22H34.2415L33.4855 20.46C33.3175 20.6093 33.0841 20.7867 32.7855 20.992C32.5055 21.1787 32.1508 21.3653 31.7215 21.552C31.3108 21.7387 30.8441 21.888 30.3215 22C29.7988 22.112 29.2388 22.168 28.6415 22.168ZM31.1335 18.836C31.2641 18.8547 31.4135 18.8453 31.5815 18.808C31.7681 18.7707 31.9455 18.7333 32.1135 18.696C32.2815 18.64 32.4401 18.5933 32.5895 18.556C32.7575 18.5 32.8881 18.4533 32.9815 18.416C33.0935 18.36 33.1775 18.3227 33.2335 18.304V15.224L31.4415 15.392C30.8255 15.4667 30.3588 15.6347 30.0415 15.896C29.7428 16.1387 29.5935 16.4933 29.5935 16.96V17.548C29.5935 17.8653 29.6588 18.1267 29.7895 18.332C29.9201 18.5187 30.0975 18.6493 30.3215 18.724C30.5641 18.7987 30.8348 18.836 31.1335 18.836Z" fill="black"/>
<path d="M0.09198 22L2.52798 1.224H7.11998L11.628 16.428L16.108 1.224H20.644L23.108 22H18.46L16.752 7.748L17.48 7.776L13.84 22H9.30398L5.63598 7.776L6.41998 7.748L4.76798 22H0.09198Z" fill="black"/>
</svg>
