<svg width="1320" height="872" viewBox="0 0 1320 872" fill="none" xmlns="http://www.w3.org/2000/svg">
<g filter="url(#filter0_d_1_3)">
<g clip-path="url(#clip0_1_3)">
<rect x="205.914" y="630.194" width="98" height="98" transform="rotate(137.093 205.914 630.194)" stroke="black" stroke-opacity="0.1" stroke-width="2"/>
<rect x="279.241" y="635.44" width="198" height="198" transform="rotate(137.093 279.241 635.44)" stroke="black" stroke-opacity="0.1" stroke-width="2"/>
<rect x="205.914" y="760.194" width="98" height="98" transform="rotate(137.093 205.914 760.194)" stroke="black" stroke-opacity="0.1" stroke-width="2"/>
<rect x="279.241" y="765.44" width="198" height="198" transform="rotate(137.093 279.241 765.44)" stroke="black" stroke-opacity="0.1" stroke-width="2"/>
<rect x="488.914" y="704.194" width="98" height="98" transform="rotate(137.093 488.914 704.194)" stroke="black" stroke-opacity="0.1" stroke-width="2"/>
<rect x="562.241" y="709.44" width="198" height="198" transform="rotate(137.093 562.241 709.44)" stroke="black" stroke-opacity="0.1" stroke-width="2"/>
<rect x="490.914" y="834.194" width="98" height="98" transform="rotate(137.093 490.914 834.194)" stroke="black" stroke-opacity="0.1" stroke-width="2"/>
<rect x="564.241" y="839.44" width="198" height="198" transform="rotate(137.093 564.241 839.44)" stroke="black" stroke-opacity="0.1" stroke-width="2"/>
<rect x="564.914" y="32.1941" width="98" height="98" transform="rotate(137.093 564.914 32.1941)" stroke="black" stroke-opacity="0.1" stroke-width="2"/>
<rect x="638.241" y="37.4398" width="198" height="198" transform="rotate(137.093 638.241 37.4398)" stroke="black" stroke-opacity="0.1" stroke-width="2"/>
<rect x="566.914" y="162.194" width="98" height="98" transform="rotate(137.093 566.914 162.194)" stroke="black" stroke-opacity="0.1" stroke-width="2"/>
<rect x="640.241" y="167.44" width="198" height="198" transform="rotate(137.093 640.241 167.44)" stroke="black" stroke-opacity="0.1" stroke-width="2"/>
<rect x="663.914" y="406.194" width="98" height="98" transform="rotate(137.093 663.914 406.194)" stroke="black" stroke-opacity="0.1" stroke-width="2"/>
<rect x="737.241" y="411.44" width="198" height="198" transform="rotate(137.093 737.241 411.44)" stroke="black" stroke-opacity="0.1" stroke-width="2"/>
<rect x="665.914" y="536.194" width="98" height="98" transform="rotate(137.093 665.914 536.194)" stroke="black" stroke-opacity="0.1" stroke-width="2"/>
<rect x="739.241" y="541.44" width="198" height="198" transform="rotate(137.093 739.241 541.44)" stroke="black" stroke-opacity="0.1" stroke-width="2"/>
<rect x="762.914" y="780.194" width="98" height="98" transform="rotate(137.093 762.914 780.194)" stroke="black" stroke-opacity="0.1" stroke-width="2"/>
<rect x="836.241" y="785.44" width="198" height="198" transform="rotate(137.093 836.241 785.44)" stroke="black" stroke-opacity="0.1" stroke-width="2"/>
<rect x="764.914" y="910.194" width="98" height="98" transform="rotate(137.093 764.914 910.194)" stroke="black" stroke-opacity="0.1" stroke-width="2"/>
<rect x="838.241" y="915.44" width="198" height="198" transform="rotate(137.093 838.241 915.44)" stroke="black" stroke-opacity="0.1" stroke-width="2"/>
<rect x="847.914" y="109.194" width="98" height="98" transform="rotate(137.093 847.914 109.194)" stroke="black" stroke-opacity="0.1" stroke-width="2"/>
<rect x="921.241" y="114.44" width="198" height="198" transform="rotate(137.093 921.241 114.44)" stroke="black" stroke-opacity="0.1" stroke-width="2"/>
<rect x="849.914" y="239.194" width="98" height="98" transform="rotate(137.093 849.914 239.194)" stroke="black" stroke-opacity="0.1" stroke-width="2"/>
<rect x="923.241" y="244.44" width="198" height="198" transform="rotate(137.093 923.241 244.44)" stroke="black" stroke-opacity="0.1" stroke-width="2"/>
<rect x="1130.91" y="185.194" width="98" height="98" transform="rotate(137.093 1130.91 185.194)" stroke="black" stroke-opacity="0.1" stroke-width="2"/>
<rect x="1204.24" y="190.44" width="198" height="198" transform="rotate(137.093 1204.24 190.44)" stroke="black" stroke-opacity="0.1" stroke-width="2"/>
<rect x="1132.91" y="315.194" width="98" height="98" transform="rotate(137.093 1132.91 315.194)" stroke="black" stroke-opacity="0.1" stroke-width="2"/>
<rect x="1206.24" y="320.44" width="198" height="198" transform="rotate(137.093 1206.24 320.44)" stroke="black" stroke-opacity="0.1" stroke-width="2"/>
<rect x="1413.91" y="261.194" width="98" height="98" transform="rotate(137.093 1413.91 261.194)" stroke="black" stroke-opacity="0.1" stroke-width="2"/>
<rect x="1487.24" y="266.44" width="198" height="198" transform="rotate(137.093 1487.24 266.44)" stroke="black" stroke-opacity="0.1" stroke-width="2"/>
<rect x="1415.91" y="391.194" width="98" height="98" transform="rotate(137.093 1415.91 391.194)" stroke="black" stroke-opacity="0.1" stroke-width="2"/>
<rect x="1489.24" y="396.44" width="198" height="198" transform="rotate(137.093 1489.24 396.44)" stroke="black" stroke-opacity="0.1" stroke-width="2"/>
<rect x="1229.91" y="547.194" width="98" height="98" transform="rotate(137.093 1229.91 547.194)" stroke="black" stroke-opacity="0.1" stroke-width="2"/>
<rect x="1303.24" y="552.44" width="198" height="198" transform="rotate(137.093 1303.24 552.44)" stroke="black" stroke-opacity="0.1" stroke-width="2"/>
<rect x="1231.91" y="677.194" width="98" height="98" transform="rotate(137.093 1231.91 677.194)" stroke="black" stroke-opacity="0.1" stroke-width="2"/>
<rect x="1305.24" y="682.44" width="198" height="198" transform="rotate(137.093 1305.24 682.44)" stroke="black" stroke-opacity="0.1" stroke-width="2"/>
<rect x="946.914" y="477.194" width="98" height="98" transform="rotate(137.093 946.914 477.194)" stroke="black" stroke-opacity="0.1" stroke-width="2"/>
<rect x="1020.24" y="482.44" width="198" height="198" transform="rotate(137.093 1020.24 482.44)" stroke="black" stroke-opacity="0.1" stroke-width="2"/>
<rect x="948.914" y="607.194" width="98" height="98" transform="rotate(137.093 948.914 607.194)" stroke="black" stroke-opacity="0.1" stroke-width="2"/>
<rect x="1022.24" y="612.44" width="198" height="198" transform="rotate(137.093 1022.24 612.44)" stroke="black" stroke-opacity="0.1" stroke-width="2"/>
<rect x="1045.91" y="845.194" width="98" height="98" transform="rotate(137.093 1045.91 845.194)" stroke="black" stroke-opacity="0.1" stroke-width="2"/>
<rect x="1119.24" y="850.44" width="198" height="198" transform="rotate(137.093 1119.24 850.44)" stroke="black" stroke-opacity="0.1" stroke-width="2"/>
<rect x="1121.24" y="980.44" width="198" height="198" transform="rotate(137.093 1121.24 980.44)" stroke="black" stroke-opacity="0.1" stroke-width="2"/>
<rect x="98.9138" y="261.194" width="98" height="98" transform="rotate(137.093 98.9138 261.194)" stroke="black" stroke-opacity="0.1" stroke-width="2"/>
<rect x="172.241" y="266.44" width="198" height="198" transform="rotate(137.093 172.241 266.44)" stroke="black" stroke-opacity="0.1" stroke-width="2"/>
<rect x="100.914" y="391.194" width="98" height="98" transform="rotate(137.093 100.914 391.194)" stroke="black" stroke-opacity="0.1" stroke-width="2"/>
<rect x="174.241" y="396.44" width="198" height="198" transform="rotate(137.093 174.241 396.44)" stroke="black" stroke-opacity="0.1" stroke-width="2"/>
<rect x="353.241" y="-39.5602" width="198" height="198" transform="rotate(137.093 353.241 -39.5602)" stroke="black" stroke-opacity="0.1" stroke-width="2"/>
<rect x="281.914" y="85.1941" width="98" height="98" transform="rotate(137.093 281.914 85.1941)" stroke="black" stroke-opacity="0.1" stroke-width="2"/>
<rect x="355.241" y="90.4398" width="198" height="198" transform="rotate(137.093 355.241 90.4398)" stroke="black" stroke-opacity="0.1" stroke-width="2"/>
<rect x="383.914" y="329.194" width="98" height="98" transform="rotate(137.093 383.914 329.194)" stroke="black" stroke-opacity="0.1" stroke-width="2"/>
<rect x="457.241" y="334.44" width="198" height="198" transform="rotate(137.093 457.241 334.44)" stroke="black" stroke-opacity="0.1" stroke-width="2"/>
<rect x="385.914" y="459.194" width="98" height="98" transform="rotate(137.093 385.914 459.194)" stroke="black" stroke-opacity="0.1" stroke-width="2"/>
<rect x="459.241" y="464.44" width="198" height="198" transform="rotate(137.093 459.241 464.44)" stroke="black" stroke-opacity="0.1" stroke-width="2"/>
<rect x="1375.91" y="887.194" width="98" height="98" transform="rotate(137.093 1375.91 887.194)" stroke="black" stroke-opacity="0.1" stroke-width="2"/>
<rect x="1449.24" y="892.44" width="198" height="198" transform="rotate(137.093 1449.24 892.44)" stroke="black" stroke-opacity="0.1" stroke-width="2"/>
<rect x="1317.91" y="15.1941" width="98" height="98" transform="rotate(137.093 1317.91 15.1941)" stroke="black" stroke-opacity="0.1" stroke-width="2"/>
<rect x="1391.24" y="20.4398" width="198" height="198" transform="rotate(137.093 1391.24 20.4398)" stroke="black" stroke-opacity="0.1" stroke-width="2"/>
<rect x="1108.24" y="-53.5602" width="198" height="198" transform="rotate(137.093 1108.24 -53.5602)" stroke="black" stroke-opacity="0.1" stroke-width="2"/>
</g>
</g>
<defs>
<filter id="filter0_d_1_3" x="0" y="0" width="1320" height="872" filterUnits="userSpaceOnUse" color-interpolation-filters="sRGB">
<feFlood flood-opacity="0" result="BackgroundImageFix"/>
<feColorMatrix in="SourceAlpha" type="matrix" values="0 0 0 0 0 0 0 0 0 0 0 0 0 0 0 0 0 0 127 0" result="hardAlpha"/>
<feOffset/>
<feGaussianBlur stdDeviation="10"/>
<feComposite in2="hardAlpha" operator="out"/>
<feColorMatrix type="matrix" values="0 0 0 0 0 0 0 0 0 0 0 0 0 0 0 0 0 0 0.5 0"/>
<feBlend mode="normal" in2="BackgroundImageFix" result="effect1_dropShadow_1_3"/>
<feBlend mode="normal" in="SourceGraphic" in2="effect1_dropShadow_1_3" result="shape"/>
</filter>
<clipPath id="clip0_1_3">
<rect x="20" y="20" width="1280" height="832" rx="20" fill="white"/>
</clipPath>
</defs>
</svg>
